HIERARCHY
ROOT Hips
{
	OFFSET 0.00000 0.00000 0.00000
	CHANNELS 6 Xposition Yposition Zposition Yrotation Zrotation Xrotation 
	JOINT Lumbar
	{
		OFFSET 0 0 0
		CHANNELS 3 Zrotation Xrotation Yrotation
		JOINT Neck
		{
			OFFSET 0.00 0.2701 0.00
			CHANNELS 3 Zrotation Xrotation Yrotation
			End Site
			{
				OFFSET 0.00 0.1379 0.00
			}
		}
		JOINT RightShoulder
		{
			OFFSET 0.0119 0.2289 0.1181
			CHANNELS 3 Zrotation Xrotation Yrotation
			JOINT RightElbow
			{
				OFFSET 0.00 -0.1475 0.00
				CHANNELS 2 Zrotation Yrotation
				JOINT RightWrist
				{
					OFFSET 0.00 -0.1605 0.00
					CHANNELS 2 Zrotation Xrotation
					End Site
					{
						OFFSET 0.0040 -0.1068 0.0006
					}
				}
			}
		}
		JOINT LeftShoulder
		{
			OFFSET 0.0119 0.2289 -0.1181
			CHANNELS 3 Zrotation Xrotation Yrotation
			JOINT LeftElbow
			{
				OFFSET 0.00 -0.1475 0.00
				CHANNELS 2 Zrotation Yrotation
				JOINT LeftWrist
				{
					OFFSET 0.00 -0.1605 0.00
					CHANNELS 2 Zrotation Xrotation
					End Site
					{
						OFFSET 0.0040 -0.1068 -0.0006
					}
				}
			}
		}
	}
	JOINT RightHip
	{
		OFFSET 0.0316 -0.0424 0.0458
		CHANNELS 3 Zrotation Xrotation Yrotation
		JOINT RightKnee
		{
			OFFSET 0.00 -0.2438 0.00
			CHANNELS 1 Zrotation
			JOINT RightAnkle
			{
				OFFSET 0.00 -0.2449 0.00
				CHANNELS 3 Zrotation Xrotation Yrotation
				End Site
				{
					OFFSET 0.1237 -0.0542 0.0051
				}
			}
		}
	}
	JOINT LeftHip
	{
		OFFSET 0.0316 -0.0424 -0.0458
		CHANNELS 3 Zrotation Xrotation Yrotation
		JOINT LeftKnee
		{
			OFFSET 0.00 -0.2438 0.00
			CHANNELS 1 Zrotation
			JOINT LeftAnkle
			{
				OFFSET 0.00 -0.2449 0.00
				CHANNELS 3 Zrotation Xrotation Yrotation
				End Site
				{
					OFFSET 0.1237 -0.0542 -0.0051
				}
			}
		}
	}
}
MOTION
Frames: 25
Frame Time: 0.02
0.21157 0.58104 0.02984 187.39456 0 -4.0702 -0.15597 1.72242 -2.84734 -16.27048 3.00513 -1.31806 -3.29751 -21.27254 -42.27027 104.90405 148.81814 26.76997 10.09278 1.46849 12.92493 40.51876 52.56965 -37.88072 -26.89081 -3.35151 -9.57467 5.8408 4.72181 -7.52106 4.14208 -5.60322 -9.00995 -4.09463 -2.10899 1.00423 -2.65798 4.59997 4.81793 5.87255
0.21215 0.58098 0.03026 187.30029 0 -4.10716 -0.26561 1.61355 -2.93921 -16.68606 3.17965 -1.24382 -2.85086 -21.45512 -41.7651 105.15097 150.1798 27.0303 10.59458 1.96826 12.66424 40.47344 52.33738 -38.2074 -26.59217 -3.34623 -9.20147 5.87154 5.06015 -8.1269 4.30816 -5.71676 -9.30609 -4.12576 -2.1099 1.10064 -2.51057 4.55763 4.77148 5.77904
0.21275 0.5809 0.03066 187.20986 0 -4.12511 -0.38378 1.48257 -3.06401 -17.15113 3.38188 -1.17984 -2.35299 -21.73163 -41.02473 105.44667 152.46853 27.4561 11.43936 2.5078 12.3709 40.44916 52.07033 -38.54816 -26.23391 -3.35675 -8.78762 5.89698 5.37794 -8.80737 4.50989 -5.83363 -9.60865 -4.16786 -2.12607 1.13316 -2.3349 4.49438 4.71604 5.72657
0.21335 0.58083 0.03106 187.11507 0 -4.15276 -0.49993 1.36439 -3.17226 -17.58228 3.56744 -1.11304 -1.89199 -21.95904 -40.41392 105.71535 154.26345 27.79364 12.10171 3.01615 12.09869 40.41112 51.81767 -38.87293 -25.91366 -3.3597 -8.38658 5.92709 5.71581 -9.46372 4.69355 -5.95009 -9.91078 -4.20367 -2.13485 1.12117 -2.17439 4.43619 4.66545 5.7304
0.21394 0.58074 0.03148 187.03006 0 -4.17563 -0.60921 1.23412 -3.28665 -18.06091 3.76972 -1.03787 -1.37427 -22.21191 -39.70976 106.00386 156.34817 28.1831 12.8703 3.57973 11.7999 40.38721 51.57119 -39.23917 -25.54716 -3.36408 -8.00794 5.94724 6.01188 -10.08079 4.88625 -6.06338 -10.2049 -4.24478 -2.14603 1.40851 -2.00395 4.39596 4.6112 5.4296
0.21456 0.58069 0.03187 186.92662 0 -4.20404 -0.73412 1.12397 -3.39639 -18.45325 3.94386 -0.98294 -0.96197 -22.43443 -39.14339 106.26303 158.05686 28.50534 13.50172 4.03849 11.54903 40.34064 51.3045 -39.52228 -25.26271 -3.36926 -7.57356 5.9873 6.38773 -10.79682 5.06792 -6.18303 -10.51589 -4.27755 -2.15544 1.07166 -1.84754 4.31423 4.5628 5.75816
0.21525 0.58073 0.0322 186.76479 0 -4.25242 -0.9041 1.07462 -3.48409 -18.58833 4.03456 -0.97973 -0.85721 -22.55314 -39.01399 106.42801 158.4858 28.59649 13.66539 4.18928 11.43487 40.22124 50.9784 -39.56891 -25.22167 -3.37334 -6.99593 6.08032 7.00135 -11.76445 5.21312 -6.32518 -10.87675 -4.28431 -2.15876 -1.10011 -1.73672 4.11583 4.53014 7.94393
0.21597 0.5808 0.03251 186.58577 0 -4.30699 -1.08863 1.04634 -3.56628 -18.63612 4.09589 -0.9969 -0.85958 -22.6377 -39.03135 106.56223 158.50912 28.61554 13.6809 4.23476 11.3707 40.07963 50.63529 -39.53195 -25.2648 -3.37762 -6.36406 6.19409 7.69309 -12.82884 5.34531 -6.47242 -11.25315 -4.28237 -2.15934 -3.87499 -1.64107 3.87774 4.50413 10.7382
0.21668 0.58086 0.03282 186.4188 0 -4.35884 -1.26388 1.00863 -3.65177 -18.72845 4.17004 -1.00588 -0.81025 -22.73628 -38.98173 106.71124 158.72988 28.67134 13.76835 4.33412 11.28595 39.95209 50.30768 -39.53525 -25.26809 -3.38142 -5.75636 6.30064 8.34085 -13.85153 5.4816 -6.61342 -11.61899 -4.28464 -2.15937 -6.28955 -1.53845 3.66252 4.47688 13.16821
0.21741 0.58092 0.03316 186.23334 0 -4.40993 -1.45093 0.96966 -3.73492 -18.80214 4.24731 -1.01066 -0.77167 -22.84474 -38.92467 106.85794 158.92753 28.7163 13.84823 4.40943 11.19098 39.80875 49.94588 -39.52914 -25.27639 -3.38733 -5.14784 6.39805 9.02464 -14.86955 5.62698 -6.77112 -11.99996 -4.28624 -2.16718 -9.06717 -1.43492 3.42616 4.44201 15.96722
0.21808 0.58099 0.03344 186.08319 0 -4.46396 -1.61645 0.93844 -3.82136 -18.89302 4.31082 -1.02893 -0.73705 -22.9229 -38.92162 107.00223 159.0648 28.76427 13.90419 4.50933 11.12967 39.69238 49.65197 -39.52304 -25.29455 -3.38876 -4.53044 6.51902 9.65104 -15.91643 5.74969 -6.89524 -12.35292 -4.28698 -2.15832 -11.23502 -1.33757 3.22469 4.42443 18.14509
0.21859 0.5811 0.03359 186.02681 0 -4.52783 -1.7213 0.92501 -3.9169 -19.05457 4.34282 -1.07908 -0.68531 -22.92876 -39.02749 107.14116 159.13202 28.84022 13.92928 4.70204 11.14839 39.65934 49.54756 -39.53314 -25.32391 -3.3771 -3.88729 6.70395 10.109 -17.04259 5.81425 -6.92485 -12.62485 -4.288 -2.10076 -11.53544 -1.2511 3.1292 4.45571 18.42797
0.21904 0.58121 0.03369 186.00798 0 -4.59396 -1.80344 0.91851 -4.01597 -19.23567 4.36197 -1.14209 -0.63449 -22.90432 -39.18441 107.27967 159.1483 28.92055 13.93388 4.92286 11.19945 39.65347 49.51261 -39.54672 -25.35983 -3.36097 -3.24031 6.91107 10.50451 -18.18911 5.85596 -6.92052 -12.86775 -4.28834 -2.02702 -11.20734 -1.17095 3.07032 4.50383 18.0699
0.21951 0.58132 0.03381 185.9772 0 -4.65695 -1.89448 0.90782 -4.11423 -19.40663 4.38735 -1.19949 -0.58468 -22.8912 -39.32225 107.42222 159.18494 28.99668 13.94685 5.13147 11.23644 39.63282 49.4475 -39.56162 -25.38996 -3.34725 -2.60437 7.10553 10.92317 -19.31145 5.90721 -6.93207 -13.1241 -4.2886 -1.96288 -11.19087 -1.08962 2.99481 4.5423 18.02586
0.22001 0.58145 0.03394 185.92443 0 -4.72891 -1.99228 0.90199 -4.20924 -19.58064 4.41013 -1.25681 -0.53244 -22.88704 -39.44856 107.54742 159.21985 29.07952 13.95888 5.33499 11.2729 39.62168 49.37599 -39.56196 -25.43452 -3.33193 -1.92592 7.31188 11.36815 -20.50276 5.96188 -6.94201 -13.38088 -4.29016 -1.88941 -11.08756 -1.00153 2.91785 4.58882 17.90872
0.22042 0.58154 0.03403 185.92637 0 -4.78287 -2.0701 0.88773 -4.3116 -19.75314 4.43559 -1.31683 -0.48424 -22.8578 -39.60799 107.70911 159.25135 29.15058 13.96987 5.55596 11.317 39.59748 49.33434 -39.59382 -25.44989 -3.31887 -1.33751 7.49809 11.74057 -21.5508 6.00381 -6.94701 -13.62847 -4.28903 -1.83128 -11.0057 -0.92898 2.85314 4.62322 17.78156
0.22064 0.58154 0.03404 186.07203 0 -4.7847 -2.10079 0.84554 -4.4359 -19.92466 4.47221 -1.38318 -0.4453 -22.76403 -39.85552 107.97134 159.2869 29.18587 13.98325 5.82875 11.37839 39.53067 49.3596 -39.7187 -25.37941 -3.31313 -0.98481 7.62638 11.94417 -22.22467 6.01912 -6.94822 -13.86784 -4.2801 -1.82185 -11.15361 -0.89658 2.81343 4.61358 17.7991
0.22078 0.5815 0.03402 186.27107 0 -4.76865 -2.11158 0.79503 -4.56697 -20.0928 4.51203 -1.45124 -0.41024 -22.64702 -40.13202 108.27044 159.32229 29.20967 13.99688 6.11649 11.44528 39.44995 49.41221 -39.87451 -25.27957 -3.3098 -0.72585 7.7329 12.07381 -22.74806 6.02192 -6.94536 -14.097 -4.26865 -1.82803 -11.33871 -0.87976 2.78503 4.59217 17.82299
0.22095 0.58149 0.03401 186.44474 0 -4.76203 -2.12979 0.75021 -4.69338 -20.25785 4.55007 -1.51717 -0.37391 -22.54224 -40.38872 108.5531 159.35933 29.24078 14.01107 6.39128 11.50679 39.37557 49.45158 -40.01184 -25.19516 -3.30544 -0.43324 7.84727 12.22583 -23.32277 6.02853 -6.94327 -14.3242 -4.25875 -1.82547 -11.4926 -0.85654 2.7515 4.58055 17.83037
0.22114 0.58146 0.034 186.62495 0 -4.75008 -2.15419 0.69773 -4.82681 -20.44359 4.58888 -1.5896 -0.33538 -22.42819 -40.67594 108.83469 159.38861 29.26412 14.02196 6.69382 11.58187 39.30173 49.49724 -40.16713 -25.10228 -3.3008 -0.10225 7.9712 12.42178 -23.97105 6.04215 -6.94438 -14.57833 -4.24708 -1.82916 -11.68495 -0.8307 2.71889 4.55144 17.87218
0.22126 0.58145 0.03398 186.80302 0 -4.74483 -2.16114 0.65894 -4.9469 -20.58456 4.62721 -1.64833 -0.30258 -22.32974 -40.90501 109.12688 159.43355 29.29968 14.0396 6.94074 11.62926 39.2235 49.53483 -40.29332 -25.01988 -3.2972 0.12596 8.06958 12.51119 -24.42917 6.03861 -6.93851 -14.77423 -4.23855 -1.82392 -11.81468 -0.81393 2.68692 4.55492 17.85346
0.22117 0.58152 0.03393 186.96804 0 -4.76342 -2.12571 0.6616 -5.03085 -20.60828 4.66187 -1.67196 -0.28245 -22.26809 -40.97269 109.44251 159.53257 29.38205 14.08007 7.03933 11.60144 39.13324 49.54773 -40.3228 -24.97426 -3.29752 0.09752 8.10406 12.3095 -24.40622 5.99001 -6.91261 -14.81239 -4.23884 -1.78877 -11.75975 -0.81844 2.65112 4.65806 17.65603
0.22101 0.58161 0.03386 187.12772 0 -4.78913 -2.07332 0.67795 -5.10065 -20.58603 4.69623 -1.68104 -0.26833 -22.2252 -40.97945 109.7668 159.64549 29.47516 14.12658 7.07977 11.54501 39.0396 49.5504 -40.32339 -24.94006 -3.29856 -0.03197 8.11316 12.00603 -24.19554 5.92489 -6.88028 -14.79222 -4.24249 -1.74446 -11.64405 -0.8315 2.61594 4.79306 17.40241
0.22088 0.58169 0.0338 187.28582 0 -4.81097 -2.02822 0.68696 -5.17543 -20.58104 4.73194 -1.69465 -0.25291 -22.18187 -41.00964 110.08518 159.74539 29.55666 14.16769 7.14073 11.49971 38.94946 49.55462 -40.34314 -24.9001 -3.29818 -0.11794 8.13299 11.75963 -24.06609 5.86784 -6.85224 -14.79864 -4.24491 -1.7053 -11.56107 -0.8406 2.58217 4.90896 17.18432
0.22075 0.58178 0.03375 187.46289 0 -4.83503 -1.98423 0.70055 -5.25677 -20.59099 4.76294 -1.71722 -0.23164 -22.10406 -41.05865 110.41373 159.87406 29.66628 14.22021 7.22671 11.46218 38.85025 49.573 -40.33918 -24.8614 -3.30238 -0.19689 8.15573 11.46592 -23.94901 5.8077 -6.81839 -14.80477 -4.24594 -1.6624 -11.45769 -0.85059 2.54165 5.04399 16.92413
